<svg xmlns="http://www.w3.org/2000/svg" viewBox="0 0 146 42" width="146" height="42">
	<defs>
		<clipPath clipPathUnits="userSpaceOnUse" id="cp1">
			<path d="M-70 -32L890 -32L890 2810L-70 2810Z" />
		</clipPath>
	</defs>
	<style>
		tspan { white-space:pre }
		.shp0 { fill: #1d1d1b } 
		.shp1 { fill: #676767 } 
		.shp2 { fill: #e94734 } 
	</style>
	<g id="Our Focus" clip-path="url(#cp1)">
		<g id="Group 631">
			<path id="path44" fill-rule="evenodd" class="shp0" d="M52.87 4.97C52.87 4.83 52.92 4.71 53.02 4.61C53.12 4.51 53.24 4.46 53.38 4.46L58.45 4.46C59.44 4.46 60.25 4.65 60.87 5.03C61.48 5.42 61.93 5.88 62.19 6.42C62.45 6.96 62.59 7.48 62.59 8C62.59 8.7 62.42 9.27 62.08 9.7C61.74 10.13 61.4 10.45 61.08 10.65C61.6 11 62.03 11.45 62.37 12C62.7 12.54 62.87 13.15 62.87 13.81C62.87 14.46 62.71 15.08 62.39 15.66C62.07 16.25 61.59 16.72 60.96 17.08C60.33 17.45 59.58 17.63 58.71 17.63L53.38 17.63C53.24 17.63 53.12 17.58 53.02 17.48C52.92 17.38 52.87 17.26 52.87 17.12L52.87 4.97ZM54.67 9.95L58.26 9.95C59.09 9.95 59.72 9.79 60.15 9.46C60.58 9.14 60.79 8.67 60.79 8.05C60.79 7.44 60.58 6.97 60.15 6.64C59.72 6.32 59.09 6.15 58.26 6.15L54.67 6.15L54.67 9.95ZM54.67 15.94L58.52 15.94C59.33 15.94 59.96 15.73 60.4 15.33C60.85 14.92 61.08 14.41 61.08 13.81C61.08 13.2 60.86 12.68 60.43 12.27C60 11.85 59.37 11.65 58.52 11.65L54.67 11.65L54.67 15.94Z" />
			<path id="path46" fill-rule="evenodd" class="shp0" d="M75.5 5.43C76.35 6.08 76.78 7.05 76.78 8.36C76.78 9.33 76.54 10.13 76.05 10.74C75.55 11.36 74.89 11.8 74.06 12.06L76.92 17.01C76.95 17.08 76.97 17.15 76.97 17.22C76.97 17.33 76.93 17.43 76.85 17.51C76.77 17.59 76.67 17.63 76.56 17.63L75.74 17.63C75.39 17.63 75.12 17.46 74.93 17.12L72.19 12.32L68.94 12.32L68.94 17.12C68.94 17.26 68.89 17.38 68.79 17.48C68.69 17.58 68.57 17.63 68.43 17.63L67.65 17.63C67.51 17.63 67.4 17.58 67.29 17.48C67.19 17.38 67.14 17.26 67.14 17.12L67.14 4.97C67.14 4.83 67.19 4.71 67.29 4.61C67.39 4.51 67.51 4.46 67.65 4.46L72.23 4.46C73.55 4.46 74.64 4.78 75.5 5.43ZM72.13 10.63C74.04 10.63 74.99 9.87 74.99 8.36C74.99 7.58 74.75 7.02 74.27 6.67C73.79 6.33 73.08 6.15 72.13 6.15L68.94 6.15L68.94 10.63L72.13 10.63Z" />
			<path id="path48" class="shp0" d="M96.44 17.2C96.34 17.34 96.24 17.44 96.14 17.52C96.04 17.59 95.88 17.63 95.66 17.63L94.85 17.63C94.74 17.63 94.64 17.59 94.56 17.51C94.48 17.43 94.44 17.33 94.44 17.22C94.44 17.14 94.46 17.07 94.49 17.01L98.95 10.91L94.68 5.08C94.64 5.01 94.63 4.94 94.63 4.87C94.63 4.76 94.67 4.66 94.75 4.58C94.83 4.5 94.93 4.46 95.04 4.46L95.93 4.46C96.14 4.46 96.3 4.5 96.41 4.59C96.52 4.68 96.62 4.79 96.72 4.93L100.09 9.52L103.38 4.95C103.48 4.81 103.58 4.7 103.69 4.6C103.8 4.51 103.96 4.46 104.17 4.46L104.98 4.46C105.1 4.46 105.2 4.5 105.28 4.58C105.36 4.66 105.4 4.76 105.4 4.87C105.4 4.94 105.38 5.01 105.34 5.08L101.13 10.95L105.57 17.01C105.61 17.07 105.63 17.14 105.63 17.22C105.63 17.33 105.59 17.43 105.5 17.51C105.42 17.59 105.32 17.63 105.21 17.63L104.32 17.63C104.11 17.63 103.95 17.59 103.85 17.52C103.75 17.44 103.65 17.34 103.55 17.2L99.99 12.34L96.44 17.2Z" />
			<path id="path50" class="shp0" d="M117.89 4.61C118 4.71 118.05 4.83 118.05 4.97L118.05 5.65C118.05 5.78 118 5.9 117.89 6C117.79 6.1 117.67 6.15 117.53 6.15L114 6.15L114 17.12C114 17.26 113.95 17.38 113.85 17.48C113.75 17.58 113.63 17.63 113.49 17.63L112.71 17.63C112.58 17.63 112.45 17.58 112.36 17.48C112.26 17.38 112.2 17.26 112.2 17.12L112.2 6.15L108.67 6.15C108.53 6.15 108.41 6.1 108.31 6C108.21 5.9 108.16 5.78 108.16 5.65L108.16 4.97C108.16 4.83 108.21 4.71 108.31 4.61C108.41 4.51 108.53 4.46 108.67 4.46L117.53 4.46C117.67 4.46 117.79 4.51 117.89 4.61Z" />
			<path id="path52" class="shp0" d="M144.09 17.48C143.98 17.38 143.86 17.24 143.75 17.07L137.61 7.87L137.61 17.12C137.61 17.26 137.56 17.38 137.46 17.48C137.36 17.58 137.24 17.63 137.1 17.63L136.32 17.63C136.18 17.63 136.06 17.58 135.96 17.48C135.86 17.38 135.81 17.26 135.81 17.12L135.81 4.97C135.81 4.83 135.86 4.71 135.96 4.61C136.06 4.51 136.18 4.46 136.32 4.46L136.98 4.46C137.15 4.46 137.29 4.51 137.4 4.61C137.51 4.71 137.63 4.85 137.74 5.03L143.88 14.23L143.88 4.97C143.88 4.83 143.93 4.71 144.03 4.61C144.13 4.51 144.25 4.46 144.4 4.46L145.17 4.46C145.31 4.46 145.43 4.51 145.53 4.61C145.63 4.71 145.68 4.83 145.68 4.97L145.68 17.12C145.68 17.26 145.63 17.38 145.53 17.48C145.43 17.58 145.31 17.63 145.17 17.63L144.51 17.63C144.34 17.63 144.2 17.58 144.09 17.48Z" />
			<path id="path54" fill-rule="evenodd" class="shp0" d="M125.84 4.27C126.81 4.27 127.68 4.45 128.45 4.82C129.22 5.18 129.87 5.67 130.41 6.28C130.94 6.9 131.35 7.62 131.64 8.44C131.92 9.26 132.06 10.13 132.06 11.05C132.06 11.98 131.92 12.85 131.64 13.67C131.35 14.49 130.94 15.21 130.41 15.83C129.87 16.44 129.22 16.93 128.45 17.28C127.68 17.64 126.81 17.82 125.84 17.82C124.87 17.82 124 17.64 123.23 17.28C122.46 16.93 121.81 16.44 121.27 15.83C120.74 15.21 120.33 14.49 120.05 13.67C119.76 12.85 119.62 11.98 119.62 11.05C119.62 10.13 119.76 9.26 120.05 8.44C120.33 7.62 120.74 6.9 121.27 6.28C121.81 5.67 122.46 5.18 123.23 4.82C124 4.45 124.87 4.27 125.84 4.27ZM125.84 5.97C125.08 5.97 124.42 6.11 123.87 6.4C123.31 6.68 122.86 7.07 122.51 7.54C122.16 8.02 121.9 8.57 121.74 9.18C121.57 9.79 121.49 10.41 121.49 11.05C121.49 11.68 121.57 12.3 121.74 12.91C121.9 13.52 122.16 14.07 122.51 14.55C122.86 15.03 123.31 15.41 123.87 15.7C124.42 15.98 125.08 16.12 125.84 16.12C126.61 16.12 127.26 15.98 127.82 15.7C128.37 15.41 128.83 15.03 129.17 14.55C129.52 14.07 129.78 13.52 129.95 12.91C130.11 12.3 130.2 11.68 130.2 11.05C130.2 10.41 130.11 9.79 129.95 9.18C129.78 8.57 129.52 8.02 129.17 7.54C128.83 7.07 128.37 6.68 127.82 6.4C127.26 6.11 126.61 5.97 125.84 5.97Z" />
			<path id="path56" fill-rule="evenodd" class="shp0" d="M91.94 16.95C91.99 17.07 92.02 17.15 92.02 17.22C92.02 17.33 91.98 17.43 91.89 17.51C91.81 17.59 91.72 17.63 91.6 17.63L90.9 17.63C90.52 17.63 90.28 17.47 90.17 17.16L89.18 14.66L82.62 14.66L81.64 17.16C81.53 17.47 81.28 17.63 80.9 17.63L80.2 17.63C80.09 17.63 79.99 17.59 79.91 17.51C79.83 17.43 79.79 17.33 79.79 17.22C79.79 17.15 79.81 17.07 79.86 16.95L84.49 5.08C84.66 4.67 84.94 4.46 85.35 4.46L86.48 4.46C86.88 4.46 87.16 4.67 87.33 5.08L91.94 16.95ZM88.17 12.98C88.34 12.98 88.46 12.81 88.4 12.64L86.14 6.84C86.05 6.63 85.75 6.63 85.68 6.84L83.41 12.64C83.35 12.81 83.47 12.98 83.64 12.98L88.17 12.98Z" />
			<path id="path58" fill-rule="evenodd" class="shp1" d="M91.49 24.6C92.36 25.28 92.79 26.27 92.79 27.57C92.79 28.45 92.58 29.2 92.17 29.81C91.76 30.43 91.21 30.88 90.53 31.19C89.84 31.49 89.08 31.64 88.23 31.64L84.75 31.64L84.75 36.25C84.75 36.38 84.7 36.5 84.6 36.6C84.5 36.7 84.38 36.75 84.24 36.75L83.47 36.75C83.33 36.75 83.21 36.7 83.11 36.6C83.01 36.5 82.96 36.38 82.96 36.25L82.96 24.09C82.96 23.95 83.01 23.84 83.11 23.74C83.21 23.63 83.33 23.58 83.47 23.58L88.23 23.58C89.54 23.58 90.63 23.92 91.49 24.6ZM88.14 29.94C89.06 29.94 89.76 29.75 90.26 29.35C90.75 28.96 90.99 28.36 90.99 27.57C90.99 26.04 90.04 25.28 88.14 25.28L84.75 25.28L84.75 29.94L88.14 29.94Z" />
			<path id="path60" class="shp1" d="M96.87 36.6C96.77 36.5 96.72 36.38 96.72 36.25L96.72 24.09C96.72 23.95 96.77 23.84 96.87 23.74C96.97 23.63 97.09 23.58 97.23 23.58L98.01 23.58C98.14 23.58 98.26 23.63 98.36 23.74C98.46 23.84 98.52 23.95 98.52 24.09L98.52 36.25C98.52 36.38 98.46 36.5 98.36 36.6C98.26 36.7 98.14 36.75 98.01 36.75L97.23 36.75C97.09 36.75 96.97 36.7 96.87 36.6Z" />
			<path id="path62" class="shp1" d="M111.97 23.74C112.07 23.84 112.13 23.95 112.13 24.09L112.13 24.77C112.13 24.91 112.07 25.03 111.97 25.13C111.87 25.23 111.75 25.28 111.61 25.28L108.08 25.28L108.08 36.25C108.08 36.38 108.03 36.5 107.93 36.6C107.83 36.7 107.71 36.75 107.57 36.75L106.79 36.75C106.66 36.75 106.54 36.7 106.44 36.6C106.33 36.5 106.28 36.38 106.28 36.25L106.28 25.28L102.75 25.28C102.61 25.28 102.49 25.23 102.39 25.13C102.29 25.03 102.24 24.91 102.24 24.77L102.24 24.09C102.24 23.95 102.29 23.84 102.39 23.74C102.49 23.63 102.61 23.58 102.75 23.58L111.61 23.58C111.75 23.58 111.87 23.63 111.97 23.74Z" />
			<path id="path64" class="shp1" d="M137.57 35.21C137.67 35.31 137.71 35.43 137.71 35.57L137.71 36.25C137.71 36.38 137.67 36.5 137.57 36.6C137.47 36.7 137.35 36.75 137.21 36.75L129.51 36.75C129.38 36.75 129.26 36.7 129.16 36.6C129.05 36.5 129 36.38 129 36.25L129 24.09C129 23.95 129.05 23.84 129.16 23.74C129.26 23.63 129.38 23.58 129.51 23.58L130.29 23.58C130.43 23.58 130.55 23.63 130.65 23.74C130.75 23.84 130.8 23.95 130.8 24.09L130.8 35.06L137.21 35.06C137.35 35.06 137.47 35.11 137.57 35.21Z" />
			<path id="path66" fill-rule="evenodd" class="shp1" d="M79.27 36.08C79.32 36.19 79.35 36.28 79.35 36.34C79.35 36.45 79.31 36.55 79.23 36.63C79.14 36.71 79.05 36.75 78.93 36.75L78.23 36.75C77.86 36.75 77.61 36.6 77.5 36.28L76.51 33.78L69.95 33.78L68.97 36.28C68.86 36.6 68.61 36.75 68.23 36.75L67.53 36.75C67.42 36.75 67.32 36.71 67.24 36.63C67.16 36.55 67.12 36.45 67.12 36.34C67.12 36.28 67.14 36.19 67.19 36.08L71.82 24.21C71.99 23.79 72.27 23.58 72.68 23.58L73.81 23.58C74.21 23.58 74.5 23.79 74.66 24.21L79.27 36.08ZM75.5 32.11C75.67 32.11 75.8 31.93 75.73 31.77L73.47 25.97C73.38 25.76 73.08 25.76 73.01 25.97L70.74 31.77C70.68 31.93 70.8 32.11 70.97 32.11L75.5 32.11Z" />
			<path id="path68" fill-rule="evenodd" class="shp1" d="M125.32 36.08C125.37 36.19 125.39 36.28 125.39 36.34C125.39 36.45 125.35 36.55 125.27 36.63C125.19 36.71 125.09 36.75 124.98 36.75L124.28 36.75C123.9 36.75 123.65 36.6 123.54 36.28L122.56 33.78L116 33.78L115.02 36.28C114.9 36.6 114.66 36.75 114.28 36.75L113.58 36.75C113.47 36.75 113.37 36.71 113.29 36.63C113.2 36.55 113.16 36.45 113.16 36.34C113.16 36.28 113.19 36.19 113.24 36.08L117.87 24.21C118.03 23.79 118.32 23.58 118.72 23.58L119.85 23.58C120.26 23.58 120.54 23.79 120.7 24.21L125.32 36.08ZM121.78 31.77L119.51 25.97C119.43 25.76 119.13 25.76 119.05 25.97L116.78 31.77C116.72 31.93 116.84 32.11 117.02 32.11L121.55 32.11C121.72 32.11 121.84 31.93 121.78 31.77Z" />
			<path id="path70" class="shp1" d="M64 32.28L63.13 32.28C63.02 32.28 62.91 32.31 62.82 32.39C62.72 32.47 62.66 32.57 62.64 32.69C62.46 33.44 62.11 34.06 61.58 34.53C61.1 34.97 60.38 35.2 59.43 35.24L59.43 35.24C59.32 35.25 59.21 35.25 59.1 35.25C58.33 35.25 57.67 35.11 57.12 34.82C56.56 34.53 56.11 34.15 55.76 33.67C55.42 33.19 55.16 32.65 54.99 32.04C54.82 31.43 54.74 30.8 54.74 30.17C54.74 29.54 54.82 28.91 54.99 28.3C55.16 27.69 55.42 27.15 55.76 26.67C56.11 26.19 56.56 25.81 57.12 25.52C57.67 25.23 58.33 25.09 59.1 25.09C59.21 25.09 59.32 25.09 59.43 25.09L59.43 25.1C60.38 25.14 61.1 25.37 61.58 25.8C62.11 26.28 62.46 26.9 62.64 27.65C62.66 27.77 62.72 27.87 62.82 27.95C62.91 28.03 63.02 28.06 63.13 28.06L64 28.06C64.11 28.06 64.21 28.02 64.29 27.94C64.37 27.86 64.42 27.76 64.42 27.65C64.39 27.03 64.19 26.4 63.81 25.74C63.43 25.08 62.85 24.53 62.06 24.07C61.35 23.66 60.46 23.45 59.43 23.41L59.43 23.4C59.32 23.39 59.21 23.4 59.1 23.4C58.12 23.4 57.26 23.58 56.49 23.94C55.71 24.3 55.06 24.79 54.53 25.41C53.99 26.02 53.58 26.74 53.3 27.56C53.02 28.38 52.87 29.25 52.87 30.17C52.87 31.1 53.02 31.97 53.3 32.8C53.58 33.62 53.99 34.34 54.53 34.95C55.06 35.57 55.71 36.05 56.49 36.41C57.26 36.76 58.12 36.94 59.1 36.94C59.21 36.94 59.32 36.94 59.43 36.94L59.43 36.93C60.46 36.89 61.35 36.68 62.06 36.27C62.85 35.81 63.43 35.26 63.81 34.6C64.19 33.94 64.39 33.31 64.42 32.69C64.42 32.58 64.37 32.48 64.29 32.4C64.21 32.32 64.11 32.28 64 32.28" />
			<path id="path72" fill-rule="evenodd" class="shp2" d="M41.22 8.75C41.22 8.9 41.22 18.54 41.22 18.62C41.22 18.63 41.22 22.58 41.22 22.58C41.22 22.58 41.22 22.59 41.22 22.6C41.22 22.68 41.22 32.32 41.22 32.46C41.22 37.28 37.27 41.22 32.44 41.22L8.78 41.22C3.95 41.22 0 37.28 0 32.46C0 32.32 0 22.68 0 22.6C0 22.59 0 18.63 0 18.63C0 18.63 0 18.63 0 18.62C0 18.54 0 8.9 0 8.75C0 3.94 3.95 0 8.78 0L32.44 0C37.27 0 41.22 3.94 41.22 8.75ZM38.68 25.12C38.68 25.12 31.53 25.12 31.51 25.12C28 25.12 25.12 27.98 25.12 31.49C25.12 31.59 25.12 38.62 25.12 38.68L32.29 38.68C35.81 38.68 38.68 35.81 38.68 32.31C38.68 32.2 38.68 25.19 38.68 25.13C38.68 25.12 38.68 25.12 38.68 25.12ZM16.09 31.49C16.09 27.98 13.22 25.12 9.7 25.12C9.69 25.12 2.54 25.12 2.54 25.12C2.54 25.12 2.54 25.12 2.54 25.13C2.54 25.19 2.54 32.2 2.54 32.31C2.54 35.81 5.41 38.68 8.92 38.68L16.09 38.68C16.09 38.62 16.09 31.59 16.09 31.49ZM2.54 16.08C2.54 16.09 2.54 16.1 2.54 16.1C2.54 16.1 9.69 16.1 9.7 16.1C13.22 16.1 16.09 13.23 16.09 9.73C16.09 9.62 16.09 2.59 16.09 2.54L8.92 2.54C5.41 2.54 2.54 5.4 2.54 8.9C2.54 9.01 2.54 16.03 2.54 16.08L2.54 16.08ZM25.12 9.73C25.12 13.23 28 16.1 31.51 16.1C31.53 16.1 38.68 16.1 38.68 16.1C38.68 16.1 38.68 16.09 38.68 16.08C38.68 16.03 38.68 9.01 38.68 8.9C38.68 5.4 35.81 2.54 32.29 2.54L25.12 2.54C25.12 2.59 25.12 9.62 25.12 9.73ZM38.67 18.63L31.37 18.63C26.54 18.63 22.59 14.7 22.59 9.88L22.59 2.54L18.63 2.54L18.63 9.88C18.63 14.7 14.68 18.63 9.85 18.63L2.54 18.63L2.54 22.58L9.85 22.58C14.68 22.58 18.63 26.52 18.63 31.33L18.63 38.67L22.59 38.67L22.59 31.33C22.59 26.52 26.54 22.58 31.37 22.58L38.67 22.58L38.67 18.63Z" />
		</g>
	</g>
</svg>