<svg xmlns="http://www.w3.org/2000/svg" viewBox="0 0 201 160" width="201" height="160">
	<defs>
		<clipPath clipPathUnits="userSpaceOnUse" id="cp1">
			<path d="M-142 -609L818 -609L818 2233L-142 2233Z" />
		</clipPath>
	</defs>
	<style>
		tspan { white-space:pre }
		.shp0 { fill: #e6e6e6 } 
		.shp1 { fill: #ff7261 } 
		.shp2 { fill: #ffffff } 
	</style>
	<g id="Our Focus" clip-path="url(#cp1)">
		<g id="Group 639">
			<g id="Group 638">
				<g id="Group 637">
					<path id="Rectangle 1705" class="shp0" d="M3.61 94.75L5.23 94.75L5.23 96.1L3.61 96.1L3.61 94.75Z" />
					<path id="Path 269" class="shp0" d="M200.07 96.1L196 96.1L196 94.75L200.07 94.75L200.07 96.1ZM191.92 96.1L187.84 96.1L187.84 94.75L191.92 94.75L191.92 96.1ZM183.76 96.1L179.69 96.1L179.69 94.75L183.76 94.75L183.76 96.1ZM175.61 96.1L171.53 96.1L171.53 94.75L175.61 94.75L175.61 96.1ZM167.45 96.1L163.37 96.1L163.37 94.75L167.45 94.75L167.45 96.1ZM159.3 96.1L155.22 96.1L155.22 94.75L159.3 94.75L159.3 96.1ZM151.14 96.1L147.06 96.1L147.06 94.75L151.14 94.75L151.14 96.1ZM142.99 96.1L138.91 96.1L138.91 94.75L142.99 94.75L142.99 96.1ZM134.83 96.1L130.75 96.1L130.75 94.75L134.83 94.75L134.83 96.1ZM126.68 96.1L122.6 96.1L122.6 94.75L126.68 94.75L126.68 96.1ZM118.52 96.1L114.44 96.1L114.44 94.75L118.52 94.75L118.52 96.1ZM110.37 96.1L106.29 96.1L106.29 94.75L110.37 94.75L110.37 96.1ZM102.21 96.1L98.13 96.1L98.13 94.75L102.21 94.75L102.21 96.1ZM94.06 96.1L89.98 96.1L89.98 94.75L94.06 94.75L94.06 96.1ZM85.9 96.1L81.82 96.1L81.82 94.75L85.9 94.75L85.9 96.1ZM77.75 96.1L73.67 96.1L73.67 94.75L77.75 94.75L77.75 96.1ZM69.59 96.1L65.51 96.1L65.51 94.75L69.59 94.75L69.59 96.1ZM61.43 96.1L57.36 96.1L57.36 94.75L61.44 94.75L61.43 96.1ZM53.28 96.1L49.2 96.1L49.2 94.75L53.28 94.75L53.28 96.1ZM45.12 96.1L41.05 96.1L41.05 94.75L45.12 94.75L45.12 96.1ZM36.97 96.1L32.89 96.1L32.89 94.75L36.97 94.75L36.97 96.1ZM28.81 96.1L24.74 96.1L24.74 94.75L28.81 94.75L28.81 96.1ZM20.66 96.1L16.58 96.1L16.58 94.75L20.66 94.75L20.66 96.1ZM12.5 96.1L8.43 96.1L8.43 94.75L12.5 94.75L12.5 96.1Z" />
					<path id="Rectangle 1706" class="shp0" d="M3.61 49.56L5.23 49.56L5.23 50.91L3.61 50.91L3.61 49.56Z" />
					<path id="Path 270" class="shp0" d="M200.07 50.91L196 50.91L196 49.56L200.07 49.56L200.07 50.91ZM191.92 50.91L187.84 50.91L187.84 49.56L191.92 49.56L191.92 50.91ZM183.76 50.91L179.69 50.91L179.69 49.56L183.76 49.56L183.76 50.91ZM175.61 50.91L171.53 50.91L171.53 49.56L175.61 49.56L175.61 50.91ZM167.45 50.91L163.37 50.91L163.37 49.56L167.45 49.56L167.45 50.91ZM159.3 50.91L155.22 50.91L155.22 49.56L159.3 49.56L159.3 50.91ZM151.14 50.91L147.06 50.91L147.06 49.56L151.14 49.56L151.14 50.91ZM142.99 50.91L138.91 50.91L138.91 49.56L142.99 49.56L142.99 50.91ZM134.83 50.91L130.75 50.91L130.75 49.56L134.83 49.56L134.83 50.91ZM126.68 50.91L122.6 50.91L122.6 49.56L126.68 49.56L126.68 50.91ZM118.52 50.91L114.44 50.91L114.44 49.56L118.52 49.56L118.52 50.91ZM110.37 50.91L106.29 50.91L106.29 49.56L110.37 49.56L110.37 50.91ZM102.21 50.91L98.13 50.91L98.13 49.56L102.21 49.56L102.21 50.91ZM94.06 50.91L89.98 50.91L89.98 49.56L94.06 49.56L94.06 50.91ZM85.9 50.91L81.82 50.91L81.82 49.56L85.9 49.56L85.9 50.91ZM77.75 50.91L73.67 50.91L73.67 49.56L77.75 49.56L77.75 50.91ZM69.59 50.91L65.51 50.91L65.51 49.56L69.59 49.56L69.59 50.91ZM61.43 50.91L57.36 50.91L57.36 49.56L61.44 49.56L61.43 50.91ZM53.28 50.91L49.2 50.91L49.2 49.56L53.28 49.56L53.28 50.91ZM45.12 50.91L41.05 50.91L41.05 49.56L45.12 49.56L45.12 50.91ZM36.97 50.91L32.89 50.91L32.89 49.56L36.97 49.56L36.97 50.91ZM28.81 50.91L24.74 50.91L24.74 49.56L28.81 49.56L28.81 50.91ZM20.66 50.91L16.58 50.91L16.58 49.56L20.66 49.56L20.66 50.91ZM12.5 50.91L8.43 50.91L8.43 49.56L12.5 49.56L12.5 50.91Z" />
					<path id="Rectangle 1707" class="shp0" d="M3.61 3.57L5.23 3.57L5.23 4.92L3.61 4.92L3.61 3.57Z" />
					<path id="Path 271" class="shp0" d="M200.07 4.92L196 4.92L196 3.57L200.07 3.57L200.07 4.92ZM191.92 4.92L187.84 4.92L187.84 3.57L191.92 3.57L191.92 4.92ZM183.76 4.92L179.69 4.92L179.69 3.57L183.76 3.57L183.76 4.92ZM175.61 4.92L171.53 4.92L171.53 3.57L175.61 3.57L175.61 4.92ZM167.45 4.92L163.37 4.92L163.37 3.57L167.45 3.57L167.45 4.92ZM159.3 4.92L155.22 4.92L155.22 3.57L159.3 3.57L159.3 4.92ZM151.14 4.92L147.06 4.92L147.06 3.57L151.14 3.57L151.14 4.92ZM142.99 4.92L138.91 4.92L138.91 3.57L142.99 3.57L142.99 4.92ZM134.83 4.92L130.75 4.92L130.75 3.57L134.83 3.57L134.83 4.92ZM126.68 4.92L122.6 4.92L122.6 3.57L126.68 3.57L126.68 4.92ZM118.52 4.92L114.44 4.92L114.44 3.57L118.52 3.57L118.52 4.92ZM110.37 4.92L106.29 4.92L106.29 3.57L110.37 3.57L110.37 4.92ZM102.21 4.92L98.13 4.92L98.13 3.57L102.21 3.57L102.21 4.92ZM94.06 4.92L89.98 4.92L89.98 3.57L94.06 3.57L94.06 4.92ZM85.9 4.92L81.82 4.92L81.82 3.57L85.9 3.57L85.9 4.92ZM77.75 4.92L73.67 4.92L73.67 3.57L77.75 3.57L77.75 4.92ZM69.59 4.92L65.51 4.92L65.51 3.57L69.59 3.57L69.59 4.92ZM61.43 4.92L57.36 4.92L57.36 3.57L61.44 3.57L61.43 4.92ZM53.28 4.92L49.2 4.92L49.2 3.57L53.28 3.57L53.28 4.92ZM45.12 4.92L41.05 4.92L41.05 3.57L45.12 3.57L45.12 4.92ZM36.97 4.92L32.89 4.92L32.89 3.57L36.97 3.57L36.97 4.92ZM28.81 4.92L24.74 4.92L24.74 3.57L28.81 3.57L28.81 4.92ZM20.66 4.92L16.58 4.92L16.58 3.57L20.66 3.57L20.66 4.92ZM12.5 4.92L8.43 4.92L8.43 3.57L12.5 3.57L12.5 4.92Z" />
					<path id="Rectangle 1708" class="shp1" d="M55.42 110.23L68.67 110.23L68.67 158.89L55.42 158.89L55.42 110.23Z" />
					<path id="Rectangle 1709" class="shp2" d="M58.55 110.23L71.8 110.23L71.8 158.89L58.55 158.89L58.55 110.23Z" />
					<path id="Rectangle 1710" class="shp1" d="M95.74 75.9L108.99 75.9L108.99 158.89L95.74 158.89L95.74 75.9Z" />
					<path id="Rectangle 1711" class="shp2" d="M98.87 75.9L112.12 75.9L112.12 158.89L98.87 158.89L98.87 75.9Z" />
					<path id="Rectangle 1712" class="shp1" d="M136.07 3.97L149.31 3.97L149.31 158.89L136.07 158.89L136.07 3.97Z" />
					<path id="Rectangle 1713" class="shp2" d="M139.19 3.97L152.44 3.97L152.44 158.89L139.19 158.89L139.19 3.97Z" />
					<path id="Ellipse 55" class="shp0" d="M3.74 7.49C1.95 7.49 0.5 6.04 0.5 4.24C0.5 2.45 1.95 1 3.74 1C5.54 1 6.99 2.45 6.99 4.24C6.99 6.04 5.54 7.49 3.74 7.49Z" />
					<path id="Ellipse 56" class="shp0" d="M3.74 53.16C1.95 53.16 0.5 51.71 0.5 49.92C0.5 48.12 1.95 46.67 3.74 46.67C5.54 46.67 6.99 48.12 6.99 49.92C6.99 51.71 5.54 53.16 3.74 53.16Z" />
					<path id="Ellipse 57" class="shp0" d="M3.74 98.83C1.95 98.83 0.5 97.38 0.5 95.59C0.5 93.8 1.95 92.35 3.74 92.35C5.54 92.35 6.99 93.8 6.99 95.59C6.99 97.38 5.54 98.83 3.74 98.83Z" />
				</g>
				<path id="Rectangle 1714" class="shp1" d="M0.5 158.59L200.07 158.59L200.07 159.19L0.5 159.19L0.5 158.59Z" />
			</g>
		</g>
	</g>
</svg>